<?xml version="1.0" encoding="UTF-8"?>
<svg width="426px" height="89px" viewBox="0 0 426 89" version="1.1" xmlns="http://www.w3.org/2000/svg" xmlns:xlink="http://www.w3.org/1999/xlink">
    <!-- Generator: Sketch 43.1 (39012) - http://www.bohemiancoding.com/sketch -->
    <title>logo</title>
    <desc>Created with Sketch.</desc>
    <defs></defs>
    <g id="Page-1" stroke="none" stroke-width="1" fill="none" fill-rule="evenodd">
        <g id="logo" transform="translate(-40.000000, -211.000000)">
            <g transform="translate(40.000000, 211.000000)">
                <path d="M20.2693151,50.4347826 L0.31890411,50.4347826 L0.31890411,2.00695652 L20.2693151,2.00695652 C27.849079,2.00695652 33.5695697,4.25028191 37.4309589,8.737 C41.2923481,13.2237181 43.2230137,18.9566608 43.2230137,25.936 C43.2230137,33.4376027 41.1255004,39.3960649 36.930411,43.8115652 C32.7353215,48.2270656 27.1816784,50.4347826 20.2693151,50.4347826 Z M20.1263014,11.4076522 L12.0460274,11.4076522 L12.0460274,41.1053043 L19.6257534,41.1053043 C22.9627564,41.1053043 25.7038249,39.8827514 27.8490411,37.4376087 C29.9942573,34.992466 31.0668493,31.1586348 31.0668493,25.936 C31.0668493,21.6154567 30.1491873,18.1139699 28.3138356,15.4314348 C26.478484,12.7488996 23.7493332,11.4076522 20.1263014,11.4076522 Z M63.1019178,2.00695652 L63.1019178,50.4347826 L51.3747945,50.4347826 L51.3747945,2.00695652 L63.1019178,2.00695652 Z M71.3967123,14.6124348 C71.3967123,10.7666764 72.9698473,7.53818697 76.1161644,4.92686957 C79.2624815,2.31555216 83.5766849,1.00991304 89.0589041,1.00991304 C91.4901491,1.00991304 93.9690285,1.36599644 96.4956164,2.07817391 C99.0222044,2.79035139 101.238895,3.71616822 103.145753,4.85565217 L99.570411,13.188087 C97.3775233,12.3809525 95.5421992,11.7756107 94.0643836,11.3720435 C92.586568,10.9684762 90.9657622,10.7666957 89.2019178,10.7666957 C87.4857448,10.7666957 86.1152106,11.122779 85.090274,11.8349565 C84.0653373,12.547134 83.5528767,13.4966897 83.5528767,14.6836522 C83.5528767,16.0130501 84.3394442,17.1287781 85.9126027,18.0308696 C87.4857613,18.932961 89.3687562,19.9537334 91.5616438,21.0932174 C94.9939898,22.8499218 98.2832719,25.0101611 101.429589,27.574 C104.575906,30.1378389 106.149041,33.4138061 106.149041,37.402 C106.149041,41.3901939 104.492482,44.7136389 101.179315,47.3724348 C97.8661478,50.0312307 93.2301668,51.3606087 87.2712329,51.3606087 C84.9353308,51.3606087 82.1823446,50.9570475 79.0121918,50.149913 C75.8420389,49.3427786 73.4465834,48.4169617 71.8257534,47.3724348 L75.4010959,38.3990435 C76.7358971,39.1586995 78.5354681,39.8827357 80.799863,40.5711739 C83.0642579,41.2596121 85.1260181,41.6038261 86.9852055,41.6038261 C89.3211076,41.6038261 91.0849255,41.176526 92.2767123,40.321913 C93.4684991,39.4673001 94.0643836,38.4465277 94.0643836,37.2595652 C94.0643836,36.1675598 93.2182276,35.0874401 91.5258904,34.0191739 C89.8335532,32.9509077 87.9863114,31.9182659 85.9841096,30.9212174 C82.6947781,29.2119915 79.441249,27.1110994 76.2234247,24.6184783 C73.0056003,22.1258571 71.3967123,18.7905426 71.3967123,14.6124348 Z M134.823288,10.6954783 C131.581628,10.6954783 128.959736,12.1198118 126.957534,14.9685217 C124.955332,17.8172316 123.954247,21.6154545 123.954247,26.3633043 C123.954247,30.9212402 124.919579,34.6245075 126.850274,37.4732174 C128.780969,40.3219273 131.462449,41.7462609 134.894795,41.7462609 C136.801653,41.7462609 138.565471,41.5088719 140.186301,41.034087 C141.807131,40.559302 143.284925,39.9658296 144.619726,39.2536522 L149.053151,47.9421739 C147.193963,49.0341794 144.953438,49.8769101 142.331507,50.4703913 C139.709576,51.0638725 137.230697,51.3606087 134.894795,51.3606087 C127.124345,51.3606087 121.332348,49.0104583 117.51863,44.310087 C113.704912,39.6097156 111.798082,33.6512535 111.798082,26.4345217 C111.798082,18.9803975 113.836007,12.8913714 117.911918,8.16726087 C121.987829,3.44315029 127.624896,1.08113043 134.823288,1.08113043 C136.873161,1.08113043 139.19711,1.38973604 141.795205,2.00695652 C144.393301,2.624177 146.669579,3.54999383 148.62411,4.78443478 L145.120274,12.7607826 C142.689029,12.0011266 140.806034,11.4670015 139.471233,11.1583913 C138.136432,10.8497811 136.587132,10.6954783 134.823288,10.6954783 Z M168.002466,2.00695652 L168.002466,31.6333913 C168.002466,35.0043647 168.884375,37.5206873 170.648219,39.1824348 C172.412064,40.8441822 174.652589,41.6750435 177.369863,41.6750435 C180.134808,41.6750435 182.399169,40.8323128 184.163014,39.1468261 C185.926858,37.4613394 186.808767,34.9568862 186.808767,31.6333913 L186.808767,2.00695652 L198.53589,2.00695652 L198.53589,32.2743478 C198.53589,38.2091601 196.605225,42.8619831 192.743836,46.2329565 C188.882446,49.6039299 183.75784,51.2893913 177.369863,51.2893913 C171.029557,51.2893913 165.928786,49.6157993 162.067397,46.2685652 C158.206008,42.9213311 156.275342,38.2566386 156.275342,32.2743478 L156.275342,2.00695652 L168.002466,2.00695652 Z" id="DISCU" fill="#19828B"></path>
                <path d="M318.881644,2.00695652 L318.881644,50.4347826 L307.154521,50.4347826 L307.154521,2.00695652 L318.881644,2.00695652 Z M350.773699,0.938695652 C358.544148,0.938695652 364.371898,3.37193219 368.257123,8.23847826 C372.142348,13.1050243 374.084932,19.0041393 374.084932,25.936 C374.084932,33.4376027 372.035089,39.5622371 367.935342,44.310087 C363.835596,49.0579368 358.115105,51.4318261 350.773699,51.4318261 C343.05092,51.4318261 337.247006,48.9985895 333.361781,44.1320435 C329.476556,39.2654974 327.533973,33.3663825 327.533973,26.4345217 C327.533973,18.9803975 329.60765,12.879502 333.755068,8.13165217 C337.902486,3.38380235 343.575306,0.98617415 350.773699,0.938695652 Z M350.702192,41.6750435 C354.229881,41.6750435 356.982867,40.3694044 358.961233,37.758087 C360.939599,35.1467696 361.928767,31.2061133 361.928767,25.936 C361.928767,21.5204997 361.058776,17.888449 359.318767,15.0397391 C357.578758,12.1910292 354.778101,10.7666957 350.916712,10.7666957 C347.484366,10.7666957 344.743298,12.1910292 342.693425,15.0397391 C340.643551,17.888449 339.61863,21.662933 339.61863,26.3633043 C339.61863,30.7788047 340.488621,34.4345942 342.22863,37.3307826 C343.968639,40.226971 346.793131,41.6750435 350.702192,41.6750435 Z M425.498356,2.00695652 L425.498356,50.4347826 L414.343288,50.4347826 C411.006285,45.8293683 407.657414,41.1290675 404.296575,36.3337391 C400.935737,31.5384108 397.610701,26.83811 394.32137,22.2326957 L394.32137,50.4347826 L382.594247,50.4347826 L382.594247,2.00695652 L393.749315,2.00695652 L413.771233,30.7787826 L413.771233,2.00695652 L425.498356,2.00695652 Z" id="ION" fill="#19828B"></path>
                <polygon id="Path" fill="#4C3995" points="240.287671 17.8491589 268.09589 17.8491589 240.804247 47.2518895 270.296432 47.2518895 244.574073 89 294.582093 36.3483776 267.284896 36.3483776 301.863014 1.95652174 258.164384 1.95652174"></polygon>
                <polygon id="Path" fill="#4C3995" points="203.589041 17.8491589 233.627853 17.8491589 204.105617 47.2518895 233.597802 47.2518895 207.875443 89 257.883463 36.3483776 230.586266 36.3483776 267.150685 1.95652174 221.465753 1.95652174"></polygon>
            </g>
        </g>
    </g>
</svg>